#!OML:ASF H:\Male1\Project 1\Capture day 1\Session 1\Male1.ASF
:FULLY-SPECIFIED
:DEGREES
571
root 5.8653 14.5948 4.67462 -892.29 51.3382 -167.35
lowerback 14.2535 -0.790643 5.94973
upperback 8.83297 0.712388 5.41759
thorax 1.33701 0.887385 2.25845
lowerneck -2.3055 -0.0787637 5.51176
upperneck 0.598064 -0.135571 -7.3385
head 0.586709 -0.0961346 -3.33775
rclavicle -6.59965e-014 -2.3059e-014
rhumerus -27.7668 -39.6617 -22.1794
rradius 26.2879
rwrist -33.8719
rhand -18.7718 -10.1799
rfingers 7.12502
rthumb 7.52545 -40.026
lclavicle -6.59965e-014 -2.3059e-014
lhumerus -6.73954 21.0142 6.71914
lradius 43.009
lwrist 18.1832
lhand -37.803 29.461
lfingers 7.12502
lthumb -10.8492 59.1608
rfemur -12.4502 8.30018 31.6056
rtibia 43.1701
rfoot -25.2526 -22.9673
rtoes -34.2366
lfemur -21.0069 -2.05132 -17.8321
ltibia 79.8133
lfoot -11.3191 3.03931
ltoes -13.8448
572
root 6.25768 14.6374 4.38812 -891.8 51.296 -166.958
lowerback 14.018 -0.604865 6.30598
upperback 8.71958 0.971251 5.47309
thorax 1.34871 1.02342 2.08482
lowerneck -2.23167 -0.271571 5.39177
upperneck 0.604727 -0.39552 -6.99726
head 0.556828 -0.224381 -3.19925
rclavicle 9.54166e-015 -2.14687e-014
rhumerus -27.411 -39.3798 -24.0194
rradius 26.202
rwrist -33.4524
rhand -18.2528 -9.72187
rfingers 7.12502
rthumb 8.02638 -39.5495
lclavicle 9.54166e-015 -2.14687e-014
lhumerus -7.65708 20.8044 6.58148
lradius 44.5977
lwrist 19.0028
lhand -38.1897 29.5879
lfingers 7.12502
lthumb -11.2222 59.2678
rfemur -9.86535 8.51084 32.1499
rtibia 42.0133
rfoot -25.035 -23.0912
rtoes -35.8457
lfemur -24.5172 -1.77767 -17.0459
ltibia 79.4589
lfoot -12.4175 4.32783
ltoes -12.4479
573
root 6.65025 14.709 4.09205 -891.825 51.3872 -167.169
lowerback 13.8114 -0.394116 6.34541
upperback 8.6399 1.21152 5.34532
thorax 1.37916 1.13735 1.89809
lowerneck -2.1023 -0.467999 5.30873
upperneck 0.611834 -0.66165 -6.56336
head 0.518439 -0.35488 -3.03634
rclavicle -1.86858e-014 7.95139e-014
rhumerus -27.0662 -39.1298 -26.0287
rradius 26.1227
rwrist -33.0792
rhand -17.7195 -9.34573
rfingers 7.12502
rthumb 8.54104 -39.153
lclavicle -1.86858e-014 7.95139e-014
lhumerus -8.39856 20.6478 6.52624
lradius 45.8622
lwrist 19.5021
lhand -38.5435 29.6184
lfingers 7.12502
lthumb -11.5634 59.2794
rfemur -7.19253 9.14745 32.299
rtibia 40.7746
rfoot -24.1091 -23.135
rtoes -37.0304
lfemur -27.3028 -1.78818 -16.8755
ltibia 77.4985
lfoot -13.4103 5.47928
ltoes -11.9187
574
root 7.04463 14.808 3.78354 -892.06 51.4571 -167.592
lowerback 13.5801 -0.220713 6.32781
upperback 8.59024 1.38947 5.14651
thorax 1.45578 1.22017 1.67874
lowerneck -1.93269 -0.66587 5.21552
upperneck 0.612656 -0.928025 -6.09081
head 0.472908 -0.484867 -2.85879
rclavicle -1.80099e-013 -3.18055e-015
rhumerus -26.7635 -38.906 -28.0638
rradius 26.0737
rwrist -32.7573
rhand -17.099 -8.97998
rfingers 7.12502
rthumb 9.13983 -38.7619
lclavicle -1.80099e-013 -3.18055e-015
lhumerus -8.93237 20.5522 6.60727
lradius 46.7418
lwrist 19.6651
lhand -38.8951 29.6166
lfingers 7.12502
lthumb -11.9025 59.2583
rfemur -4.59137 9.78124 32.2909
rtibia 39.6594
rfoot -22.3956 -22.9559
rtoes -37.7447
lfemur -29.2705 -2.20535 -16.9191
ltibia 74.1023
lfoot -14.3652 6.52876
ltoes -11.9236
575
root 7.44144 14.9259 3.4633 -892.423 51.4361 -168.114
lowerback 13.3202 -0.0985066 6.27843
upperback 8.55687 1.49548 4.94603
thorax 1.56435 1.26769 1.48649
lowerneck -1.74705 -0.855729 5.10653
upperneck 0.630091 -1.17989 -5.66625
head 0.432568 -0.607545 -2.69522
rclavicle 1.70955e-014 -4.37326e-014
rhumerus -26.5435 -38.6934 -29.977
rradius 26.0649
rwrist -32.4599
rhand -16.4091 -8.51748
rfingers 7.12502
rthumb 9.80544 -38.2692
lclavicle 1.70955e-014 -4.37326e-014
lhumerus -9.2709 20.5194 6.87428
lradius 47.2483
lwrist 19.5275
lhand -39.2643 29.6295
lfingers 7.12502
lthumb -12.2585 59.2502
rfemur -2.27249 10.0881 32.1439
rtibia 38.9411
rfoot -19.8805 -22.4456
rtoes -38.0776
lfemur -30.3988 -3.10002 -16.9859
ltibia 69.5273
lfoot -15.3885 7.43404
ltoes -11.8618
576
root 7.84022 15.0485 3.13462 -892.921 51.3384 -168.735
lowerback 13.0407 -0.0209388 6.10516
upperback 8.55045 1.53223 4.78852
thorax 1.70634 1.2778 1.41849
lowerneck -1.59748 -1.0146 4.97229
upperneck 0.67778 -1.38736 -5.35163
head 0.411804 -0.708767 -2.56479
rclavicle 2.82274e-014 -5.64548e-014
rhumerus -26.3256 -38.4984 -31.7102
rradius 26.0569
rwrist -32.135
rhand -15.7656 -7.94195
rfingers 7.12502
rthumb 10.4262 -37.6634
lclavicle 2.82274e-014 -5.64548e-014
lhumerus -9.49602 20.5343 7.28665
lradius 47.4414
lwrist 19.2202
lhand -39.585 29.7148
lfingers 7.12502
lthumb -12.5677 59.3168
rfemur -0.450621 9.9144 31.7989
rtibia 38.9307
rfoot -16.736 -21.5017
rtoes -37.773
lfemur -30.7447 -4.48048 -16.9968
ltibia 64.1391
lfoot -16.4103 8.28142
ltoes -11.6263
577
root 8.23915 15.1591 2.80143 -893.508 51.2189 -169.368
lowerback 12.7852 0.0220709 5.82648
upperback 8.56964 1.52071 4.67369
thorax 1.85755 1.26113 1.45998
lowerneck -1.4982 -1.12285 4.82301
upperneck 0.74588 -1.52649 -5.12526
head 0.410512 -0.776675 -2.46182
rclavicle -7.95139e-014 1.03368e-014
rhumerus -26.0742 -38.3828 -33.2424
rradius 25.9891
rwrist -31.6686
rhand -15.2917 -7.31436
rfingers 7.12502
rthumb 10.8834 -37.0123
lclavicle -7.95139e-014 1.03368e-014
lhumerus -9.63473 20.5897 7.76261
lradius 47.3795
lwrist 18.8191
lhand -39.7631 29.8918
lfingers 7.12502
lthumb -12.7394 59.4832
rfemur 0.718131 9.26934 31.2766
rtibia 39.9222
rfoot -13.2755 -20.1889
rtoes -37.0431
lfemur -30.3874 -6.31033 -16.8584
ltibia 58.3551
lfoot -17.3137 9.14625
ltoes -11.5024
